<?xml version="1.0" encoding="utf-8"?>
<!-- Generator: Adobe Illustrator 27.2.0, SVG Export Plug-In . SVG Version: 6.00 Build 0)  -->
<svg version="1.1" id="Capa_2" xmlns="http://www.w3.org/2000/svg" xmlns:xlink="http://www.w3.org/1999/xlink" x="0px" y="0px"
	 viewBox="0 0 512 512" style="enable-background:new 0 0 512 512;" xml:space="preserve">
<style type="text/css">
	.st0{fill:#00234B;}
	.st1{fill:#F9FFFE;}
	.st2{fill:#FFFFFF;}
</style>
<path class="st0" d="M171,188h169.69c0,0-1,114.59-84.85,115.3C172,304,171,188,171,188z"/>
<path class="st0" d="M264.5,316.5c0,0,24-1,43-18l13,4l-14,103l-27,1l-11-43l13-18L264.5,316.5z"/>
<path class="st0" d="M203.5,297.5l-13,4l14.71,105h26.89l11.4-44l-13-17l18-30C248.5,315.5,223.5,315.5,203.5,297.5z"/>
<polygon class="st0" points="331.5,305.5 352.5,312.5 339.5,417.5 339.5,477.5 171,479.04 171,404.61 158.5,312.5 180.12,305.5 
	194.5,416.5 317.5,417.5 "/>
<circle class="st1" cx="314.5" cy="443.5" r="13"/>
<circle class="st2" cx="196.5" cy="444.5" r="13"/>
<path class="st0" d="M147.5,320.5l12.15,86v72.54H76c0,0-10.5,0.46-10.5-14.54s2-43,2-43S72.5,350.5,147.5,320.5z"/>
<path class="st0" d="M364.5,320.5l-12,92.38v66.16h79.72c0,0,6.28,3.46,13.28-10.54v-34.01C445.5,434.49,446.5,355.5,364.5,320.5z"
	/>
<path class="st0" d="M159.65,176.42H352.5l11-16.92c0,0,2-5-8-5l-5,9l-189-1l-4-6c0,0-8-6-9,5s0,1.34,0,1.34L159.65,176.42z"/>
<path class="st0" d="M171,152.04h169.69c0,0,6.81-66.54-50.19-89.54v72c0,0-7,15-14,0v-80c0,0-18.44-13-41.22,0l0.22,81
	c0,0-6,11-15,0l1-73C221.5,62.5,165.5,86.57,171,152.04z"/>
</svg>
