<?xml version="1.0" encoding="utf-8"?>
<!-- Generator: Adobe Illustrator 27.2.0, SVG Export Plug-In . SVG Version: 6.00 Build 0)  -->
<svg version="1.1" xmlns="http://www.w3.org/2000/svg" xmlns:xlink="http://www.w3.org/1999/xlink" x="0px" y="0px"
	 viewBox="0 0 512 512" style="enable-background:new 0 0 512 512;" xml:space="preserve">
<style type="text/css">
	.st0{fill:#02182D;}
	.st1{fill:#01172C;}
</style>
<g id="Capa_2">
</g>
<g id="Capa_3">
	<ellipse class="st0" cx="164.5" cy="179" rx="25.5" ry="23"/>
	<ellipse class="st1" cx="358.5" cy="179" rx="25.5" ry="23"/>
	<path class="st1" d="M149,208l-19,2c0,0-8-1-15,8s-30,46-30,46s-4,12,6,12s28.16,0,28.16,0l0.34-9.5h-10l16-26l1.18,35.5h72.22
		v-37.18l14.6,26.68l-8,1l-0.37,9.5h26.65c0,0,7.71,0.5,6.71-10.5l-27-48c0,0-8-9-15-8s-18.23-1.5-18.23-1.5s3.02,30.38-7.62,27.88
		c-0.36-0.09-0.75-0.21-1.14-0.38c-12-5,0.4,0.17,0.4,0.17l-1.4-21.17l1-3h-13l2,4v20C158.5,235.5,149.5,243.5,149,208z"/>
	<path class="st1" d="M342.5,209.5c0,0,0,31,10,26c0,0,0-13,1-19s0-0.9,0-0.9s-2,4.9-3-5.1c0,0,4.75,0,13,0c1,0,1,0,1,0s1,3-3,5
		l2,19c0,0,5,2,7-1s0,1.23,0,1.23l2.72-25.23h20.42c0,0,9.86,2,12.86,9s30,45,30,45s7.66,9.01-2.67,12.5h-13.54l-22.79-35.5
		l-0.21,35.5h-74.8V237.1l-14.99,29.4l9-1l0.4,10.5h-28.37c0,0-7.03-2.5-3.03-12.5s27-46,27-46S316.5,206.5,342.5,209.5z"/>
	<path class="st1" d="M55,286h417.87c0,0,7.87,8.58,0,13.29h-15.39L458,393l11,2l1,11H61.16l1.34-11.5h13l-2-95L55,301.21
		C55,301.21,51.5,294.5,55,286z"/>
</g>
</svg>
